<svg width="56" height="56" viewBox="0 0 56 56" fill="none" xmlns="http://www.w3.org/2000/svg">
<path d="M41.6278 47.9171C41.934 47.9171 42.2277 47.7954 42.4442 47.5789C42.6607 47.3623 42.7824 47.0686 42.7824 46.7624V23.6696H32.3906C31.1657 23.6696 29.991 23.183 29.1248 22.3168C28.2587 21.4507 27.7721 20.2759 27.7721 19.051V8.65924H13.9164C13.6101 8.65924 13.3164 8.78089 13.0999 8.99742C12.8834 9.21396 12.7617 9.50765 12.7617 9.81388V21.9376C12.7617 22.397 12.5792 22.8375 12.2544 23.1623C11.9296 23.4871 11.4891 23.6696 11.0297 23.6696C10.5704 23.6696 10.1299 23.4871 9.80507 23.1623C9.48026 22.8375 9.29779 22.397 9.29779 21.9376V9.81388C9.29779 8.58896 9.78438 7.41421 10.6505 6.54806C11.5167 5.68191 12.6914 5.19531 13.9164 5.19531H28.1693C28.2339 5.19531 28.2963 5.20455 28.3586 5.21148C28.4037 5.21901 28.4492 5.2244 28.4949 5.22764C28.9914 5.26228 29.4809 5.35696 29.9359 5.54632C30.0675 5.60175 30.1945 5.67564 30.3192 5.74723L30.4347 5.8142L30.5432 5.86962C30.6079 5.89904 30.6704 5.93299 30.7302 5.97123C30.9104 6.09362 31.072 6.23911 31.236 6.3869L31.3191 6.45618C31.3588 6.48452 31.3966 6.51537 31.4323 6.54855L44.8931 20.0071C45.7593 20.873 46.2461 22.0476 46.2463 23.2724V46.7624C46.2463 47.9873 45.7597 49.1621 44.8936 50.0282C44.0274 50.8944 42.8527 51.381 41.6278 51.381H13.9164C12.6914 51.381 11.5167 50.8944 10.6505 50.0282C9.78438 49.1621 9.29779 47.9873 9.29779 46.7624V38.1026C9.29779 37.6433 9.48026 37.2027 9.80507 36.8779C10.1299 36.5531 10.5704 36.3706 11.0297 36.3706C11.4891 36.3706 11.9296 36.5531 12.2544 36.8779C12.5792 37.2027 12.7617 37.6433 12.7617 38.1026V46.7624C12.7617 47.0686 12.8834 47.3623 13.0999 47.5789C13.3164 47.7954 13.6101 47.9171 13.9164 47.9171H41.6278ZM40.1914 20.2057L31.236 11.2479V19.051C31.236 19.3572 31.3576 19.6509 31.5742 19.8675C31.7907 20.084 32.0844 20.2057 32.3906 20.2057H40.1914ZM6.41118 30.5974H12.1959L15.7915 22.3972C15.9183 22.107 16.1223 21.8572 16.3812 21.6748C16.6401 21.4925 16.944 21.3846 17.26 21.3629C17.5759 21.3413 17.8917 21.4066 18.1731 21.5519C18.4545 21.6972 18.6907 21.9169 18.8559 22.187L18.8698 22.2101L18.9852 22.448L24.5575 36.366L27.8529 31.5165C27.9787 31.2795 28.1579 31.075 28.3763 30.9191C28.5948 30.7632 28.8464 30.6602 29.1114 30.6182L29.1345 30.6136L29.3816 30.5974H34.0002C34.4384 30.5952 34.8612 30.7592 35.1833 31.0563C35.5054 31.3534 35.7029 31.7616 35.736 32.1986C35.7691 32.6355 35.6353 33.0688 35.3616 33.4111C35.0879 33.7533 34.6947 33.9791 34.2611 34.0429L34.238 34.0452L34.0002 34.0614H30.4116L25.8415 41.2063C25.699 41.4782 25.4867 41.7073 25.2265 41.8703C24.9662 42.0332 24.6674 42.124 24.3605 42.1334C24.0536 42.1428 23.7498 42.0704 23.4801 41.9237C23.2104 41.7771 22.9845 41.5613 22.8256 41.2986L22.814 41.2779L22.6986 41.0446L17.3041 27.57L14.914 33.0245C14.7984 33.2885 14.6187 33.5195 14.3913 33.6965C14.1638 33.8735 13.8958 33.991 13.6115 34.0383L13.5838 34.0429L13.3298 34.0614H6.41118C5.97297 34.0636 5.55019 33.8996 5.22808 33.6025C4.90596 33.3054 4.70845 32.8972 4.67536 32.4602C4.64226 32.0232 4.77604 31.59 5.04974 31.2477C5.32343 30.9055 5.71668 30.6797 6.15023 30.6159L6.17333 30.6136L6.41118 30.5974Z" fill="#B3F400"/>
</svg>
