<svg width="61" height="60" viewBox="0 0 61 60" fill="none" xmlns="http://www.w3.org/2000/svg">
<path d="M13.1875 17.6689H47.5256C48.2213 17.669 48.9094 17.8148 49.5454 18.097C50.1813 18.3792 50.7511 18.7916 51.218 19.3074C51.6848 19.8233 52.0384 20.4313 52.2559 21.0922C52.4734 21.7531 52.55 22.4523 52.4808 23.1446L50.9868 38.085C50.8639 39.3139 50.2888 40.4533 49.3731 41.282C48.4574 42.1107 47.2665 42.5696 46.0315 42.5696H22.2514C21.0996 42.5701 19.9833 42.1713 19.0926 41.4413C18.2018 40.7112 17.5916 39.695 17.3658 38.5656L13.1875 17.6689Z" stroke="#B3F400" stroke-width="4.98014" stroke-linejoin="round"/>
<path d="M40.5783 52.5297H45.5584M13.1875 17.6688L11.1705 9.59348C11.0356 9.05501 10.7247 8.57705 10.2871 8.23553C9.84946 7.89401 9.31028 7.70851 8.75517 7.7085H5.71729L13.1875 17.6688ZM20.6577 52.5297H25.6378H20.6577Z" stroke="#B3F400" stroke-width="4.98014" stroke-linecap="round" stroke-linejoin="round"/>
</svg>
