<svg width="68" height="67" viewBox="0 0 68 67" fill="none" xmlns="http://www.w3.org/2000/svg">
<path d="M58.5006 9.71015L23.147 22.3341V41.8757L25.2351 42.6211L22.0889 48.9135C21.7306 49.6289 21.5303 50.4129 21.5015 51.2125C21.4728 52.0121 21.6163 52.8085 21.9224 53.5477C22.2285 54.287 22.6899 54.9518 23.2755 55.497C23.861 56.0422 24.557 56.4552 25.3161 56.7079L36.7173 60.5073C37.9926 60.9231 39.3746 60.8695 40.6139 60.356C41.8532 59.8426 42.8682 58.9032 43.4759 57.7073L47.1134 50.4322L58.5006 54.4997C58.9217 54.6499 59.3727 54.6968 59.8157 54.6364C60.2587 54.576 60.6807 54.4101 61.0462 54.1527C61.4117 53.8952 61.71 53.5537 61.9161 53.157C62.1222 52.7602 62.2299 52.3198 62.2303 51.8727V12.3371C62.2299 11.89 62.1222 11.4496 61.9161 11.0528C61.71 10.6561 61.4117 10.3146 61.0462 10.0572C60.6807 9.79972 60.2587 9.63382 59.8157 9.57343C59.3727 9.51305 58.9217 9.55994 58.5006 9.71015ZM38.4816 55.2115L27.0832 51.4121L30.5309 44.5139L41.8148 48.545L38.4816 55.2115V55.2115ZM11.9803 41.8757H17.5636V22.3341H11.9803C8.9011 22.3341 6.39697 24.8382 6.39697 27.9174V36.2924C6.39697 39.3716 8.9011 41.8757 11.9803 41.8757Z" fill="#B3F400"/>
</svg>
