<svg width="55" height="62" viewBox="0 0 55 62" fill="none" xmlns="http://www.w3.org/2000/svg">
<g clip-path="url(#clip0_947_618)">
<path d="M48.6436 27.325H43.346L40.2012 20.9137C38.6962 17.8435 35.9414 15.586 32.7665 14.7733L24.2025 12.2305C23.2995 12.015 22.2881 11.9102 21.4935 11.9102C18.9795 11.9102 16.5174 12.7301 14.479 14.2917L9.69433 17.9699C8.70826 18.7164 8.19054 19.8602 8.19054 21.016C8.19054 23.0761 9.8364 24.8712 12.0457 24.8712C12.8654 24.8712 13.6916 24.6114 14.3899 24.0747L19.1613 20.4169C19.8741 19.8766 20.7277 19.5998 21.5127 19.5998C21.7556 19.5998 21.9921 19.6263 22.216 19.6795L23.9762 20.1912L19.4613 30.7261C19.0373 31.6955 18.8447 32.7189 18.8447 33.7302C18.8447 36.3898 20.2281 38.97 22.6385 40.3871L32.8724 46.4227L29.5615 56.9878C29.4453 57.36 29.3861 57.7477 29.3859 58.1376C29.3859 59.7811 30.4402 61.3053 32.0901 61.8194C32.4619 61.9398 32.8592 62 33.2324 62C34.8723 62 36.3929 60.9465 36.9046 59.291L40.7273 47.1307C40.8708 46.6242 40.9436 46.1003 40.9435 45.5739C40.9435 43.5789 39.9008 41.6597 38.1081 40.5846L30.7481 36.2357L34.5106 26.7988L36.9487 31.7954C37.916 33.7543 39.9628 35.0305 42.0336 35.0305H48.6436C50.765 35.0305 52.4964 33.2992 52.4964 31.1777C52.4964 29.0467 50.7626 27.325 48.6436 27.325ZM35.1588 11.9138C38.3494 11.9138 40.938 9.32523 40.938 6.13465C40.938 2.94406 38.3494 0.355469 35.1588 0.355469C31.9682 0.355469 29.3797 2.94406 29.3797 6.13465C29.3797 9.32523 31.9682 11.9138 35.1588 11.9138ZM16.1116 38.5823L14.3177 42.7361H6.26294C4.1415 42.7361 2.41016 44.4674 2.41016 46.5889C2.41016 48.7103 4.1415 50.4417 6.26294 50.4417H15.5939C17.9116 50.4417 19.9885 49.0571 20.8915 46.9356L21.96 44.4674L20.6657 43.715C18.5919 42.4833 17.0507 40.6652 16.1116 38.5823Z" fill="#B3F400"/>
</g>
<defs>
<clipPath id="clip0_947_618">
<rect width="53.939" height="61.6446" fill="white" transform="translate(0.483398 0.355469)"/>
</clipPath>
</defs>
</svg>
