<svg width="60" height="59" viewBox="0 0 60 59" fill="none" xmlns="http://www.w3.org/2000/svg">
<path d="M50.4127 3.54883H44.5757C43.8017 3.54883 43.0594 3.85631 42.512 4.40364C41.9647 4.95096 41.6572 5.69329 41.6572 6.46733V56.0584H53.3312V6.46733C53.3312 5.69329 53.0237 4.95096 52.4764 4.40364C51.9291 3.85631 51.1868 3.54883 50.4127 3.54883ZM32.9017 21.0598H27.0647C26.2907 21.0598 25.5484 21.3673 25.001 21.9146C24.4537 22.4619 24.1462 23.2043 24.1462 23.9783V56.0584H35.8202V23.9783C35.8202 23.2043 35.5127 22.4619 34.9654 21.9146C34.4181 21.3673 33.6758 21.0598 32.9017 21.0598ZM15.3907 38.5708H9.55375C8.77972 38.5708 8.03739 38.8783 7.49006 39.4256C6.94274 39.9729 6.63525 40.7153 6.63525 41.4893V56.0584H18.3092V41.4893C18.3092 40.7153 18.0018 39.9729 17.4544 39.4256C16.9071 38.8783 16.1648 38.5708 15.3907 38.5708Z" fill="#B3F400"/>
</svg>
